<?xml version="1.0" encoding="UTF-8"?>
<!DOCTYPE svg PUBLIC "-//W3C//DTD SVG 1.1//EN" "http://www.w3.org/Graphics/SVG/1.1/DTD/svg11.dtd">
<!-- Creator: CorelDRAW -->
<svg xmlns="http://www.w3.org/2000/svg" xml:space="preserve" width="177px" height="66px" version="1.1" style="shape-rendering:geometricPrecision; text-rendering:geometricPrecision; image-rendering:optimizeQuality; fill-rule:evenodd; clip-rule:evenodd"
viewBox="0 0 174.59 65.1"
 xmlns:xlink="http://www.w3.org/1999/xlink"
 xmlns:xodm="http://www.corel.com/coreldraw/odm/2003">
 <defs>
  <style type="text/css">
   <![CDATA[
    .fil1 {fill:none}
    .fil0 {fill:#3479E2;fill-rule:nonzero}
   ]]>
  </style>
 </defs>
 <g id="Camada_x0020_1">
  <metadata id="CorelCorpID_0Corel-Layer"/>
  <path class="fil0" d="M124.79 5.96c3.46,-1.25 7.27,-0.64 10.69,0.45 0,1.83 0,3.65 0,5.48 -2.13,-0.28 -4.56,-0.52 -6.42,0.76 -1.36,0.97 -0.96,2.82 -1.02,4.26 3.97,-0.04 7.94,0.08 11.91,0.05 2.38,5.62 4.77,11.24 7.16,16.86 2.36,-5.62 4.74,-11.22 7.09,-16.84 3.02,-0.04 6.04,-0.01 9.06,-0.02 -3.68,9.25 -7.34,18.52 -11.12,27.73 -1.93,4.62 -4.2,9.23 -7.66,12.92 -2.26,2.42 -5.34,4.3 -8.74,4.32 -0.01,-3.14 0.01,-6.28 -0.01,-9.42 3.41,-0.19 6.28,-3.25 6.61,-6.59 0.12,-0.81 -0.33,-1.53 -0.59,-2.26 -2.56,-6.64 -5.12,-13.27 -7.67,-19.92 -2.01,-0.02 -4.03,0 -6.04,-0.01 0,7.27 0,14.54 0,21.81 -2.89,0 -5.78,0 -8.67,0 0,-7.27 0,-14.54 0,-21.81 -1.62,0 -3.24,0 -4.86,0 0.94,1.91 1.55,3.99 1.75,6.11 -6.82,1.85 -13.66,3.64 -20.48,5.51 0.99,1.21 2.26,2.23 3.77,2.71 2.58,0.89 5.61,0.31 7.65,-1.52 0.93,-0.79 1.63,-1.81 2.22,-2.87 2.34,0.71 4.69,1.41 7.03,2.11 -1.46,3.03 -3.49,5.92 -6.37,7.74 -3.29,2.04 -7.37,2.74 -11.15,1.94 -3,-0.61 -5.8,-2.19 -7.91,-4.41 -1.97,-2.09 -3.33,-4.75 -3.87,-7.57 -0.77,-4.05 0.22,-8.38 2.57,-11.75 -2.94,0.05 -5.99,-0.15 -8.8,0.87 -1.59,0.58 -2.94,1.81 -3.6,3.38 -0.89,2 -0.8,4.23 -0.84,6.36 -0.07,4.47 -0.12,8.94 -0.1,13.4 -5.22,0.07 -10.43,0.06 -15.65,0.05 0,-0.57 0,-1.15 0,-1.72 -3.35,1.8 -7.38,2.19 -11.06,1.29 -4.57,-1.11 -8.36,-4.6 -10.21,-8.88 -2.36,2.84 -4.9,5.66 -8.16,7.5 -3.23,1.82 -7.18,2.23 -10.75,1.26 -3.44,-0.93 -6.5,-3.1 -8.6,-5.98 -1.79,-2.47 -2.83,-5.49 -2.84,-8.55 -0.06,-3.39 1.12,-6.77 3.19,-9.44 2.11,-2.75 5.15,-4.78 8.51,-5.61 2.75,-0.66 5.69,-0.54 8.36,0.39 2.82,0.98 5.31,2.8 7.26,5.04 -2.01,1.67 -4.02,3.34 -6.03,5.02 -1.05,-1.45 -2.58,-2.58 -4.32,-3.03 -2.19,-0.6 -4.62,-0.14 -6.44,1.2 -2.3,1.59 -3.58,4.53 -3.15,7.3 0.36,2.65 2.24,5 4.71,6 2.21,0.93 4.85,0.74 6.9,-0.5 2.78,-1.59 4.85,-4.1 6.68,-6.66 2.69,-3.72 4.98,-7.78 8.34,-10.95 1.93,-1.84 4.31,-3.25 6.92,-3.83 5.12,-1.25 10.92,0.38 14.44,4.33 2.35,2.42 3.89,5.62 4.18,8.98 0.12,-3.29 0.79,-6.74 2.89,-9.38 2.03,-2.62 5.25,-4.01 8.44,-4.61 3.3,-0.62 6.69,-0.58 10.04,-0.35 -0.01,2.23 -0.01,4.46 -0.01,6.69 1.88,-2.48 4.49,-4.41 7.47,-5.33 3.1,-1.01 6.57,-0.88 9.54,0.46 3.15,1.39 5.69,3.95 7.31,6.97 0,-2.17 0,-4.33 0,-6.49 1.68,0 3.35,0 5.03,0 0,-2.01 -0.1,-4.08 0.59,-6.01 0.75,-2.27 2.57,-4.15 4.83,-4.94zm-28.86 19.33l0 0c-1.19,1.23 -1.98,2.97 -1.62,4.7 4.55,-1.23 9.1,-2.43 13.65,-3.67 -0.68,-2.02 -2.7,-3.28 -4.74,-3.61 -2.66,-0.5 -5.46,0.65 -7.29,2.58zm-43.72 -2.23l0 0c-3.24,0.52 -5.95,3.35 -6.26,6.63 -0.42,3.31 1.65,6.71 4.76,7.92 3.13,1.32 7.03,0.18 8.99,-2.58 1.52,-2.06 1.89,-4.91 0.91,-7.28 -1.28,-3.26 -4.95,-5.34 -8.4,-4.69z"/>
  <rect class="fil1" width="174.59" height="65.1"/>
 </g>
</svg>
